<?xml version="1.0" encoding="utf-8"?>
<!-- Generator: Adobe Illustrator 27.4.1, SVG Export Plug-In . SVG Version: 6.00 Build 0)  -->
<svg version="1.1" id="레이어_1" xmlns="http://www.w3.org/2000/svg" xmlns:xlink="http://www.w3.org/1999/xlink" x="0px"
	 y="0px" viewBox="0 0 47.1 8" style="enable-background:new 0 0 47.1 8;" xml:space="preserve">
<style type="text/css">
	.st0{clip-path:url(#SVGID_00000157287180987561915160000007859460682435063455_);}
	.st1{fill:#FFFFFF;}
</style>
<g id="그룹_3" transform="translate(0 0)">
	<g>
		<g>
			<defs>
				<rect id="SVGID_1_" y="0" width="47.1" height="14.9"/>
			</defs>
			<clipPath id="SVGID_00000031204644435192599750000005338350041716560032_">
				<use xlink:href="#SVGID_1_"  style="overflow:visible;"/>
			</clipPath>
			
				<g id="그룹_2" transform="translate(0 0)" style="clip-path:url(#SVGID_00000031204644435192599750000005338350041716560032_);">
				<path id="패스_15" class="st1" d="M3.8,6.2c0.6,0,1.2-0.4,1.5-1c0-0.1,0.1-0.1,0.2-0.1l0,0L6.8,6c0.1,0.1,0.1,0.2,0.1,0.2
					C6.3,7.3,5.1,8,3.8,8C1.7,8,0,6.2,0,4l0,0c0-2.2,1.7-4,3.8-4c1.3,0,2.4,0.7,3,1.8c0,0.1,0,0.2-0.1,0.2L5.5,2.8
					c-0.1,0-0.2,0-0.2-0.1c-0.2-0.6-0.8-1-1.5-1C2.8,1.8,2,2.8,2,4S2.8,6.2,3.8,6.2"/>
				<path id="패스_16" class="st1" d="M13.3,1.9C13.3,2,13.2,2,13.1,2l0,0c-1.4-0.5-2.6,0.3-2.6,1.6v4.1c0,0.1-0.1,0.1-0.2,0.1
					H8.6c-0.1,0-0.1-0.1-0.1-0.1l0,0V0.3c0-0.1,0-0.2,0.1-0.2h1.8c0.1,0,0.2,0.1,0.2,0.2v0.5c0.4-0.5,1.4-1,2.8-0.7
					c0.1,0,0.1,0.1,0.1,0.2L13.3,1.9z"/>
				<path id="패스_17" class="st1" d="M21.7,4.8h-5.2c0.2,0.8,0.9,1.5,1.8,1.5c0.6,0,1.2-0.3,1.5-0.9c0-0.1,0.1-0.1,0.2-0.1l0,0
					l1.3,0.8c0.1,0.1,0.1,0.2,0,0.2c-0.7,1-1.8,1.6-3.1,1.6c-2.2,0-3.9-1.8-3.8-4l0,0c0-2.2,1.7-4,3.8-4c2.3,0,3.9,2.1,3.7,4.6
					C21.8,4.7,21.8,4.8,21.7,4.8 M19.8,3.1c-0.1-0.8-0.8-1.4-1.6-1.4c-0.8,0-1.5,0.6-1.8,1.4H19.8z"/>
				<path id="패스_18" class="st1" d="M40.1,8H27.2c-2.1,0-3.8-1.7-3.8-3.8V3.8c0-2.1,1.7-3.8,3.8-3.8h12.9C42.3,0,44,1.7,44,3.8
					v0.3C44,6.3,42.3,8,40.1,8 M27.2,1.6c-1.2,0-2.2,1-2.2,2.2v0.3c0,1.2,1,2.2,2.2,2.2h12.9c1.2,0,2.2-1,2.2-2.2V3.8
					c0-1.2-1-2.2-2.2-2.2L27.2,1.6z"/>
				<path id="패스_19" class="st1" d="M47.1,6.7c0,0.5-0.5,0.9-1,0.9s-0.9-0.5-0.9-1s0.4-0.9,1-0.9C46.6,5.7,47.1,6.2,47.1,6.7
					L47.1,6.7"/>
			</g>
		</g>
	</g>
</g>
</svg>
