<svg xmlns="http://www.w3.org/2000/svg" xmlns:xlink="http://www.w3.org/1999/xlink" width="126.018" height="40" viewBox="0 0 126.018 40">
  <defs>
    <clipPath id="clip-path">
      <rect id="사각형_5" data-name="사각형 5" width="126.018" height="40" fill="none"/>
    </clipPath>
  </defs>
  <g id="그룹_3" data-name="그룹 3" transform="translate(0 0)">
    <g id="그룹_2" data-name="그룹 2" transform="translate(0 0)" clip-path="url(#clip-path)">
      <path id="패스_1" data-name="패스 1" d="M4.5,31.678H2.125a.308.308,0,0,0-.308.308V45a.308.308,0,0,0,.308.308H4.5A.308.308,0,0,0,4.811,45V31.986a.308.308,0,0,0-.308-.308" transform="translate(-0.323 -5.639)" fill="#1a1311"/>
      <path id="패스_2" data-name="패스 2" d="M14.738,35.721a3.727,3.727,0,0,0-2.863,1.269.162.162,0,0,1-.192.047.164.164,0,0,1-.1-.151v-.524a.308.308,0,0,0-.308-.308H8.9a.308.308,0,0,0-.308.308v9.357a.308.308,0,0,0,.308.308h2.377a.308.308,0,0,0,.308-.308V40.874a2.232,2.232,0,0,1,2.159-2.491c.682,0,1.826.28,1.826,2.159v5.177a.308.308,0,0,0,.308.308h2.377a.308.308,0,0,0,.308-.308V40.209c0-3.1-1.92-4.488-3.823-4.488" transform="translate(-1.529 -6.359)" fill="#1a1311"/>
      <path id="패스_3" data-name="패스 3" d="M28.443,35.333H26.921a.165.165,0,0,1-.164-.164V31.986a.308.308,0,0,0-.308-.308H24.071a.308.308,0,0,0-.308.308v3.183a.165.165,0,0,1-.165.164h-.857a.308.308,0,0,0-.308.308v2.045a.308.308,0,0,0,.308.308H23.6a.165.165,0,0,1,.165.164v4.384c0,1.967,1.03,3.1,2.826,3.1a6.98,6.98,0,0,0,1.936-.219.306.306,0,0,0,.226-.3V43.358a.309.309,0,0,0-.1-.229.318.318,0,0,0-.238-.077,1.574,1.574,0,0,1-1.235-.214c-.313-.262-.418-.688-.418-1.688V38.159a.165.165,0,0,1,.164-.164h1.521a.308.308,0,0,0,.308-.308V35.642a.308.308,0,0,0-.308-.308" transform="translate(-3.994 -5.639)" fill="#1a1311"/>
      <path id="패스_4" data-name="패스 4" d="M63.248,35.721a3.729,3.729,0,0,0-2.865,1.271.16.16,0,0,1-.189.046.166.166,0,0,1-.1-.152v-.524a.308.308,0,0,0-.308-.308H57.407a.308.308,0,0,0-.308.308v9.357a.308.308,0,0,0,.308.308h2.377a.308.308,0,0,0,.308-.308V40.874a2.232,2.232,0,0,1,2.159-2.491c.682,0,1.826.28,1.826,2.159v5.177a.308.308,0,0,0,.308.308h2.377a.308.308,0,0,0,.308-.308V40.209c0-3.1-1.92-4.488-3.823-4.488" transform="translate(-10.165 -6.359)" fill="#1a1311"/>
      <path id="패스_5" data-name="패스 5" d="M81.807,36.054H79.429a.308.308,0,0,0-.308.308v.4a.163.163,0,0,1-.1.151.167.167,0,0,1-.175-.034,4.118,4.118,0,0,0-2.877-1.158,5.094,5.094,0,0,0-4.82,5.319,5.094,5.094,0,0,0,4.82,5.319A4.118,4.118,0,0,0,78.843,45.2a.164.164,0,0,1,.278.118v.4a.308.308,0,0,0,.308.308h2.378a.308.308,0,0,0,.308-.308V36.362a.308.308,0,0,0-.308-.308M79.121,41.04a2.5,2.5,0,1,1-2.491-2.657,2.58,2.58,0,0,1,2.491,2.657" transform="translate(-12.665 -6.359)" fill="#1a1311"/>
      <path id="패스_6" data-name="패스 6" d="M92.82,35.333H91.3a.165.165,0,0,1-.164-.164V31.986a.308.308,0,0,0-.308-.308H88.448a.308.308,0,0,0-.308.308v3.183a.165.165,0,0,1-.165.164h-.857a.308.308,0,0,0-.308.308v2.045a.308.308,0,0,0,.308.308h.857a.165.165,0,0,1,.165.164v4.384c0,1.967,1.03,3.1,2.826,3.1A6.98,6.98,0,0,0,92.9,45.42a.306.306,0,0,0,.226-.3V43.358a.309.309,0,0,0-.1-.229.319.319,0,0,0-.238-.077,1.574,1.574,0,0,1-1.235-.214c-.313-.262-.418-.688-.418-1.688V38.159a.165.165,0,0,1,.164-.164H92.82a.308.308,0,0,0,.308-.308V35.642a.308.308,0,0,0-.308-.308" transform="translate(-15.454 -5.639)" fill="#1a1311"/>
      <path id="패스_7" data-name="패스 7" d="M99.905,36.125H97.527a.308.308,0,0,0-.308.308V45.79a.308.308,0,0,0,.308.308h2.378a.308.308,0,0,0,.308-.308V36.433a.308.308,0,0,0-.308-.308" transform="translate(-17.307 -6.431)" fill="#1a1311"/>
      <path id="패스_8" data-name="패스 8" d="M98.645,29.657a1.829,1.829,0,1,0,1.83,1.83,1.831,1.831,0,0,0-1.83-1.83" transform="translate(-17.235 -5.279)" fill="#1a1311"/>
      <path id="패스_9" data-name="패스 9" d="M108.263,35.721a5.321,5.321,0,1,0,0,10.637,5.227,5.227,0,0,0,5.485-5.319,5.285,5.285,0,0,0-5.485-5.318m0,2.662a2.663,2.663,0,1,1-2.491,2.657,2.58,2.58,0,0,1,2.491-2.657" transform="translate(-18.297 -6.359)" fill="#1a1311"/>
      <path id="패스_10" data-name="패스 10" d="M124.187,35.721a3.728,3.728,0,0,0-2.864,1.27.165.165,0,0,1-.292-.105v-.524a.308.308,0,0,0-.308-.308h-2.377a.308.308,0,0,0-.308.308v9.357a.308.308,0,0,0,.308.308h2.377a.308.308,0,0,0,.308-.308V40.874a2.232,2.232,0,0,1,2.159-2.491c.682,0,1.826.28,1.826,2.159v5.177a.308.308,0,0,0,.308.308H127.7a.308.308,0,0,0,.308-.308V40.209c0-3.1-1.92-4.488-3.823-4.488" transform="translate(-21.013 -6.359)" fill="#1a1311"/>
      <path id="패스_11" data-name="패스 11" d="M142.748,36.054H140.37a.308.308,0,0,0-.308.308v.4a.165.165,0,0,1-.279.118,4.118,4.118,0,0,0-2.877-1.158,5.094,5.094,0,0,0-4.82,5.319,5.094,5.094,0,0,0,4.82,5.319,4.118,4.118,0,0,0,2.879-1.16.164.164,0,0,1,.277.119v.4a.308.308,0,0,0,.308.308h2.378a.308.308,0,0,0,.308-.308V36.362a.308.308,0,0,0-.308-.308m-2.686,4.986a2.5,2.5,0,1,1-2.491-2.657,2.581,2.581,0,0,1,2.491,2.657" transform="translate(-23.514 -6.359)" fill="#1a1311"/>
      <path id="패스_12" data-name="패스 12" d="M151.043,30.87h-2.378a.308.308,0,0,0-.308.308V44.855a.308.308,0,0,0,.308.308h2.378a.308.308,0,0,0,.308-.308V31.178a.308.308,0,0,0-.308-.308" transform="translate(-26.411 -5.495)" fill="#1a1311"/>
      <path id="패스_13" data-name="패스 13" d="M52.986,38.3a.178.178,0,0,1-.224.14,2.332,2.332,0,0,0-3.373,2.071v5.276a.208.208,0,0,1-.206.179H46.841a.173.173,0,0,1-.169-.179V36.215A.2.2,0,0,1,46.841,36h2.342a.229.229,0,0,1,.206.219v.657a3.6,3.6,0,0,1,3.6-.956.192.192,0,0,1,.15.2Z" transform="translate(-8.309 -6.374)" fill="#1a1311"/>
      <path id="패스_14" data-name="패스 14" d="M41.75,41.922H34.641a2.562,2.562,0,0,0,2.4,2.025,2.329,2.329,0,0,0,2.062-1.21.218.218,0,0,1,.315-.063l1.728,1.086a.342.342,0,0,1,.039.334,5.138,5.138,0,0,1-4.144,2.17,5.43,5.43,0,0,1,0-10.851c3.1,0,5.3,2.9,4.969,6.26a.263.263,0,0,1-.256.25m-2.573-2.295a2.176,2.176,0,0,0-2.14-1.878,2.564,2.564,0,0,0-2.376,1.878Z" transform="translate(-5.667 -6.304)" fill="#1a1311"/>
      <path id="패스_15" data-name="패스 15" d="M10.094,16.729a4.227,4.227,0,0,0,3.959-2.64.4.4,0,0,1,.583-.206l3.648,2.186a.5.5,0,0,1,.156.66,9.352,9.352,0,0,1-8.152,4.744A10.487,10.487,0,0,1,0,10.747,10.513,10.513,0,0,1,10.288.023,9.224,9.224,0,0,1,18.44,4.808a.484.484,0,0,1-.156.619L14.636,7.612a.5.5,0,0,1-.583-.205,4.183,4.183,0,0,0-3.959-2.6c-2.718,0-4.852,2.64-4.852,5.94s2.134,5.982,4.852,5.982" transform="translate(0 -0.004)" fill="#1a1311"/>
      <path id="패스_16" data-name="패스 16" d="M40.564,5.175a.366.366,0,0,1-.465.289C36.332,4.1,33.11,6.33,33.11,9.754V20.684a.43.43,0,0,1-.427.372H27.83a.36.36,0,0,1-.349-.372V.844A.413.413,0,0,1,27.83.39h4.853a.473.473,0,0,1,.427.454V2.205C34.159.844,36.837-.558,40.564.225a.4.4,0,0,1,.311.413Z" transform="translate(-4.892 0)" fill="#1a1311"/>
      <path id="패스_17" data-name="패스 17" d="M66.276,12.894H52.223a5.064,5.064,0,0,0,4.736,4A4.6,4.6,0,0,0,61.035,14.5a.429.429,0,0,1,.621-.124l3.417,2.145a.678.678,0,0,1,.077.66,10.157,10.157,0,0,1-8.191,4.289A10.486,10.486,0,0,1,46.671,10.748,10.513,10.513,0,0,1,56.959.024c6.134,0,10.482,5.733,9.822,12.375a.52.52,0,0,1-.5.495M61.19,8.356a4.3,4.3,0,0,0-4.232-3.712,5.069,5.069,0,0,0-4.7,3.712Z" transform="translate(-8.308 -0.004)" fill="#1a1311"/>
      <path id="패스_18" data-name="패스 18" d="M121.038,21.469H86.488A10.3,10.3,0,0,1,76.2,11.178v-.887A10.3,10.3,0,0,1,86.488,0h34.549a10.3,10.3,0,0,1,10.29,10.29v.887a10.3,10.3,0,0,1-10.29,10.29M86.488,4.317a5.981,5.981,0,0,0-5.974,5.974v.887a5.981,5.981,0,0,0,5.974,5.974h34.549a5.982,5.982,0,0,0,5.974-5.974v-.887a5.982,5.982,0,0,0-5.974-5.974Z" transform="translate(-13.565 0)" fill="#1a1311"/>
      <path id="패스_19" data-name="패스 19" d="M152.2,21.264a2.57,2.57,0,1,1-2.584-2.631,2.606,2.606,0,0,1,2.584,2.631" transform="translate(-26.179 -3.317)" fill="#1a1311"/>
    </g>
  </g>
</svg>
