<?xml version="1.0" encoding="utf-8"?>
<!-- Generator: Adobe Illustrator 27.4.1, SVG Export Plug-In . SVG Version: 6.00 Build 0)  -->
<svg version="1.1" id="레이어_1" xmlns="http://www.w3.org/2000/svg" xmlns:xlink="http://www.w3.org/1999/xlink" x="0px"
	 y="0px" viewBox="0 0 126 21.5" style="enable-background:new 0 0 126 21.5;" xml:space="preserve">
<style type="text/css">
	.st0{clip-path:url(#SVGID_00000018946228396960625990000015736903757526901414_);}
	.st1{fill:#1A1311;}
</style>
<g id="그룹_3" transform="translate(0 0)">
	<g>
		<defs>
			<rect id="SVGID_1_" y="0" width="126" height="40"/>
		</defs>
		<clipPath id="SVGID_00000085238843334116880650000014999593763701114288_">
			<use xlink:href="#SVGID_1_"  style="overflow:visible;"/>
		</clipPath>
		
			<g id="그룹_2" transform="translate(0 0)" style="clip-path:url(#SVGID_00000085238843334116880650000014999593763701114288_);">
			<path id="패스_15" class="st1" d="M10.1,16.7c1.7,0,3.3-1,4-2.6c0.1-0.2,0.3-0.3,0.5-0.2c0,0,0,0,0.1,0l3.6,2.2
				c0.2,0.1,0.3,0.4,0.2,0.7c-1.7,2.9-4.8,4.7-8.2,4.7C4.5,21.4-0.1,16.6,0,10.8c0,0,0,0,0,0C-0.1,4.9,4.5,0.1,10.3,0
				c3.4,0,6.5,1.8,8.2,4.8c0.1,0.2,0,0.5-0.2,0.6l-3.6,2.2c-0.2,0.1-0.5,0-0.6-0.2c-0.7-1.6-2.2-2.6-4-2.6c-2.7,0-4.9,2.6-4.9,5.9
				S7.4,16.7,10.1,16.7"/>
			<path id="패스_16" class="st1" d="M35.7,5.2c0,0.2-0.2,0.3-0.4,0.3c0,0,0,0,0,0c-3.8-1.4-7,0.9-7,4.3v10.9
				c0,0.2-0.2,0.4-0.4,0.4h-4.9c-0.2,0-0.4-0.2-0.3-0.4c0,0,0,0,0,0V0.8c0-0.2,0.1-0.4,0.3-0.5h4.9c0.2,0,0.4,0.2,0.4,0.5v1.4
				c1-1.4,3.7-2.8,7.5-2c0.2,0,0.3,0.2,0.3,0.4L35.7,5.2z"/>
			<path id="패스_17" class="st1" d="M58,12.9H43.9c0.5,2.3,2.4,3.9,4.7,4c1.7,0,3.3-0.9,4.1-2.4c0.1-0.2,0.4-0.3,0.6-0.1
				c0,0,0,0,0,0l3.4,2.1c0.1,0.2,0.2,0.4,0.1,0.7c-1.9,2.7-4.9,4.3-8.2,4.3c-5.8-0.1-10.4-4.9-10.3-10.7c0,0,0,0,0,0
				C38.2,4.9,42.8,0.1,48.7,0c6.1,0,10.5,5.7,9.8,12.4C58.5,12.7,58.2,12.9,58,12.9 M52.9,8.4c-0.3-2.1-2.1-3.7-4.2-3.7
				c-2.2,0.1-4.1,1.6-4.7,3.7H52.9z"/>
			<path id="패스_18" class="st1" d="M107.5,21.5H72.9c-5.7,0-10.3-4.6-10.3-10.3v-0.9C62.6,4.6,67.2,0,72.9,0h34.5
				c5.7,0,10.3,4.6,10.3,10.3v0.9C117.8,16.9,113.2,21.5,107.5,21.5 M72.9,4.3c-3.3,0-6,2.7-6,6v0.9c0,3.3,2.7,6,6,6h34.5
				c3.3,0,6-2.7,6-6v-0.9c0-3.3-2.7-6-6-6L72.9,4.3z"/>
			<path id="패스_19" class="st1" d="M126,17.9c0,1.4-1.2,2.5-2.6,2.5c-1.4,0-2.5-1.2-2.5-2.6c0-1.4,1.2-2.5,2.6-2.5
				C124.9,15.3,126,16.5,126,17.9C126,17.9,126,17.9,126,17.9"/>
		</g>
	</g>
</g>
</svg>
