<?xml version="1.0" encoding="utf-8"?>
<!-- Generator: Adobe Illustrator 27.4.1, SVG Export Plug-In . SVG Version: 6.00 Build 0)  -->
<svg version="1.1" id="레이어_1" xmlns="http://www.w3.org/2000/svg" xmlns:xlink="http://www.w3.org/1999/xlink" x="0px"
	 y="0px" viewBox="0 0 47.1 14.9" style="enable-background:new 0 0 47.1 14.9;" xml:space="preserve">
<style type="text/css">
	.st0{clip-path:url(#SVGID_00000153685623322859589060000014460984469323266998_);}
	.st1{fill:#FFFFFF;}
</style>
<g id="그룹_3" transform="translate(0 0)">
	<g>
		<defs>
			<rect id="SVGID_1_" y="0" width="47.1" height="14.9"/>
		</defs>
		<clipPath id="SVGID_00000101817764096997605940000011603528141705323423_">
			<use xlink:href="#SVGID_1_"  style="overflow:visible;"/>
		</clipPath>
		
			<g id="그룹_2" transform="translate(0 0)" style="clip-path:url(#SVGID_00000101817764096997605940000011603528141705323423_);">
			<path id="패스_1" class="st1" d="M1.6,9.7H0.7c-0.1,0-0.1,0.1-0.1,0.1l0,0v4.9c0,0.1,0.1,0.1,0.1,0.1h0.9
				c0.1,0,0.1-0.1,0.1-0.1c0,0,0,0,0,0V9.8C1.7,9.8,1.6,9.7,1.6,9.7L1.6,9.7"/>
			<path id="패스_2" class="st1" d="M4.9,11c-0.4,0-0.8,0.2-1.1,0.5c0,0,0,0-0.1,0c0,0,0,0,0-0.1v-0.2c0-0.1-0.1-0.1-0.1-0.1H2.8
				c-0.1,0-0.1,0.1-0.1,0.1v3.5c0,0.1,0.1,0.1,0.1,0.1h0.9c0.1,0,0.1-0.1,0.1-0.1v-1.8C3.7,12.4,4,12,4.5,12c0,0,0.1,0,0.1,0
				c0.3,0,0.7,0.1,0.7,0.8v1.9c0,0.1,0.1,0.1,0.1,0.1h0.9c0.1,0,0.1-0.1,0.1-0.1v-2.1C6.4,11.5,5.6,11,4.9,11"/>
			<path id="패스_3" class="st1" d="M9.1,11.1H8.6c0,0-0.1,0-0.1-0.1V9.8c0-0.1-0.1-0.1-0.1-0.1c0,0,0,0,0,0H7.5
				c-0.1,0-0.1,0.1-0.1,0.1c0,0,0,0,0,0V11c0,0,0,0.1-0.1,0.1H7c-0.1,0-0.1,0.1-0.1,0.1V12c0,0.1,0.1,0.1,0.1,0.1h0.3
				c0,0,0.1,0,0.1,0.1v1.6c0,0.7,0.4,1.2,1.1,1.2c0.2,0,0.5,0,0.7-0.1c0.1,0,0.1-0.1,0.1-0.1v-0.7c0,0,0-0.1,0-0.1c0,0-0.1,0-0.1,0
				c-0.2,0-0.3,0-0.5-0.1c-0.1-0.1-0.2-0.3-0.2-0.6v-1.1c0,0,0-0.1,0.1-0.1h0.6c0.1,0,0.1-0.1,0.1-0.1v-0.8
				C9.2,11.1,9.2,11.1,9.1,11.1"/>
			<path id="패스_4" class="st1" d="M19.8,11c-0.4,0-0.8,0.2-1.1,0.5c0,0,0,0-0.1,0c0,0,0,0,0-0.1v-0.2c0-0.1-0.1-0.1-0.1-0.1
				h-0.9c-0.1,0-0.1,0.1-0.1,0.1v3.5c0,0.1,0.1,0.1,0.1,0.1h0.9c0.1,0,0.1-0.1,0.1-0.1v-1.8c-0.1-0.5,0.3-0.9,0.7-0.9
				c0,0,0.1,0,0.1,0c0.3,0,0.7,0.1,0.7,0.8v1.9c0,0.1,0.1,0.1,0.1,0.1h0.9c0.1,0,0.1-0.1,0.1-0.1v-2.1C21.3,11.5,20.5,11,19.8,11"/>
			<path id="패스_5" class="st1" d="M25.8,11.1h-0.9c-0.1,0-0.1,0.1-0.1,0.1v0.1c0,0,0,0,0,0.1c0,0,0,0-0.1,0
				C24.4,11.1,24,11,23.6,11c-1,0.1-1.8,0.9-1.8,2c0,1,0.8,1.9,1.8,2c0.4,0,0.8-0.2,1.1-0.4c0,0,0.1,0,0.1,0c0,0,0,0,0,0v0.1
				c0,0.1,0.1,0.1,0.1,0.1h0.9c0.1,0,0.1-0.1,0.1-0.1v-3.5C25.9,11.1,25.9,11.1,25.8,11.1 M24.8,13c0,0.5-0.5,0.9-1,0.9
				c-0.5,0-0.9-0.5-0.9-1c0-0.5,0.4-0.9,0.9-0.9C24.4,12,24.8,12.4,24.8,13"/>
			<path id="패스_6" class="st1" d="M28.9,11.1h-0.6c0,0-0.1,0-0.1-0.1V9.8c0-0.1-0.1-0.1-0.1-0.1h-0.9c-0.1,0-0.1,0.1-0.1,0.1V11
				c0,0,0,0.1-0.1,0.1h-0.3c-0.1,0-0.1,0.1-0.1,0.1V12c0,0.1,0.1,0.1,0.1,0.1h0.3c0,0,0.1,0,0.1,0.1v1.6c0,0.7,0.4,1.2,1.1,1.2
				c0.2,0,0.5,0,0.7-0.1c0.1,0,0.1-0.1,0.1-0.1v-0.7c0,0,0-0.1,0-0.1c0,0-0.1,0-0.1,0c-0.2,0-0.3,0-0.5-0.1
				c-0.1-0.1-0.2-0.3-0.2-0.6v-1.1c0,0,0-0.1,0.1-0.1h0.6C29,12.1,29,12,29,12v-0.8C29,11.1,29,11.1,28.9,11.1"/>
			<path id="패스_7" class="st1" d="M30.8,11.1H30c-0.1,0-0.1,0.1-0.1,0.1v3.5c0,0.1,0.1,0.1,0.1,0.1h0.9c0.1,0,0.1-0.1,0.1-0.1
				v-3.5C31,11.1,30.9,11.1,30.8,11.1"/>
			<path id="패스_8" class="st1" d="M30.4,9.1c-0.4,0-0.7,0.3-0.7,0.7c0,0.4,0.3,0.7,0.7,0.7c0.4,0,0.7-0.3,0.7-0.7
				C31.1,9.4,30.8,9.1,30.4,9.1"/>
			<path id="패스_9" class="st1" d="M33.6,11c-1.1,0-2,0.8-2,1.9c0,1.1,0.8,2,1.9,2c0,0,0.1,0,0.1,0c1.1,0.1,2-0.8,2-1.9
				c0,0,0-0.1,0-0.1C35.7,11.9,34.8,11,33.6,11C33.7,11,33.6,11,33.6,11 M33.6,12c0.5,0,1,0.4,1.1,0.9c0,0.5-0.4,1-0.9,1.1
				c-0.5,0-1-0.4-1.1-0.9c0,0,0,0,0-0.1C32.7,12.4,33.1,12,33.6,12"/>
			<path id="패스_10" class="st1" d="M38.5,11c-0.4,0-0.8,0.2-1.1,0.5c0,0-0.1,0-0.1,0c0,0,0,0,0,0v-0.2c0-0.1-0.1-0.1-0.1-0.1
				h-0.9c-0.1,0-0.1,0.1-0.1,0.1v3.5c0,0.1,0.1,0.1,0.1,0.1h0.9c0.1,0,0.1-0.1,0.1-0.1v-1.8c-0.1-0.5,0.3-0.9,0.7-0.9
				c0,0,0.1,0,0.1,0c0.3,0,0.7,0.1,0.7,0.8v1.9c0,0.1,0.1,0.1,0.1,0.1h0.9c0.1,0,0.1-0.1,0.1-0.1v-2.1C40,11.5,39.2,11,38.5,11"/>
			<path id="패스_11" class="st1" d="M44.5,11.1h-0.9c-0.1,0-0.1,0.1-0.1,0.1v0.1c0,0,0,0.1-0.1,0.1c0,0,0,0,0,0
				c-0.3-0.3-0.7-0.4-1.1-0.4c-1,0.1-1.8,0.9-1.8,2c0,1,0.8,1.9,1.8,2c0.4,0,0.8-0.2,1.1-0.4c0,0,0.1,0,0.1,0c0,0,0,0,0,0v0.1
				c0,0.1,0.1,0.1,0.1,0.1h0.9c0.1,0,0.1-0.1,0.1-0.1v-3.5C44.6,11.1,44.6,11.1,44.5,11.1 M43.5,13c0,0.5-0.5,0.9-1,0.9
				c-0.5,0-0.9-0.5-0.9-1c0-0.5,0.4-0.9,0.9-0.9C43.1,12,43.5,12.4,43.5,13"/>
			<path id="패스_12" class="st1" d="M46.5,9.5h-0.9c-0.1,0-0.1,0.1-0.1,0.1v5.1c0,0.1,0.1,0.1,0.1,0.1h0.9c0.1,0,0.1-0.1,0.1-0.1
				V9.6C46.7,9.5,46.6,9.5,46.5,9.5"/>
			<path id="패스_13" class="st1" d="M16.7,11.9C16.7,12,16.6,12,16.7,11.9C16.6,12,16.6,12,16.7,11.9c-0.5-0.2-1,0-1.3,0.4
				c-0.1,0.1-0.1,0.2-0.1,0.4v2c0,0,0,0.1-0.1,0.1h-0.9c0,0-0.1,0-0.1-0.1c0,0,0,0,0,0v-3.6c0,0,0-0.1,0.1-0.1h0.9
				c0,0,0.1,0,0.1,0.1v0.2c0.3-0.4,0.9-0.5,1.3-0.4c0,0,0.1,0,0.1,0.1L16.7,11.9z"/>
			<path id="패스_14" class="st1" d="M13.5,13.3h-2.7c0.1,0.4,0.5,0.7,0.9,0.8c0.3,0,0.6-0.2,0.8-0.5c0,0,0.1-0.1,0.1,0
				c0,0,0,0,0,0l0.6,0.4c0,0,0,0.1,0,0.1c-0.4,0.5-0.9,0.8-1.5,0.8c-1.1,0-2-1-1.9-2.1c0-1.1,0.9-1.9,1.9-1.9
				C12.9,10.9,13.7,12,13.5,13.3C13.6,13.3,13.5,13.3,13.5,13.3 M12.5,12.4c-0.1-0.4-0.4-0.7-0.8-0.7c-0.4,0-0.8,0.3-0.9,0.7H12.5z"
				/>
			<path id="패스_15" class="st1" d="M3.8,6.2c0.6,0,1.2-0.4,1.5-1c0-0.1,0.1-0.1,0.2-0.1c0,0,0,0,0,0L6.8,6
				c0.1,0.1,0.1,0.2,0.1,0.2C6.3,7.3,5.1,8,3.8,8C1.7,8,0,6.2,0,4c0,0,0,0,0,0c0-2.2,1.7-4,3.8-4c1.3,0,2.4,0.7,3,1.8
				c0,0.1,0,0.2-0.1,0.2L5.5,2.8c-0.1,0-0.2,0-0.2-0.1c-0.2-0.6-0.8-1-1.5-1C2.8,1.8,2,2.8,2,4S2.8,6.2,3.8,6.2"/>
			<path id="패스_16" class="st1" d="M13.3,1.9c0,0.1-0.1,0.1-0.2,0.1c0,0,0,0,0,0c-1.4-0.5-2.6,0.3-2.6,1.6v4.1
				c0,0.1-0.1,0.1-0.2,0.1H8.6c-0.1,0-0.1-0.1-0.1-0.1c0,0,0,0,0,0V0.3c0-0.1,0-0.2,0.1-0.2h1.8c0.1,0,0.2,0.1,0.2,0.2v0.5
				c0.4-0.5,1.4-1,2.8-0.7c0.1,0,0.1,0.1,0.1,0.2L13.3,1.9z"/>
			<path id="패스_17" class="st1" d="M21.7,4.8h-5.2c0.2,0.8,0.9,1.5,1.8,1.5c0.6,0,1.2-0.3,1.5-0.9c0-0.1,0.1-0.1,0.2-0.1
				c0,0,0,0,0,0l1.3,0.8c0.1,0.1,0.1,0.2,0,0.2c-0.7,1-1.8,1.6-3.1,1.6c-2.2,0-3.9-1.8-3.8-4c0,0,0,0,0,0c0-2.2,1.7-4,3.8-4
				c2.3,0,3.9,2.1,3.7,4.6C21.8,4.7,21.8,4.8,21.7,4.8 M19.8,3.1c-0.1-0.8-0.8-1.4-1.6-1.4c-0.8,0-1.5,0.6-1.8,1.4H19.8z"/>
			<path id="패스_18" class="st1" d="M40.1,8H27.2c-2.1,0-3.8-1.7-3.8-3.8V3.8c0-2.1,1.7-3.8,3.8-3.8h12.9C42.3,0,44,1.7,44,3.8
				v0.3C44,6.3,42.3,8,40.1,8 M27.2,1.6c-1.2,0-2.2,1-2.2,2.2v0.3c0,1.2,1,2.2,2.2,2.2h12.9c1.2,0,2.2-1,2.2-2.2V3.8
				c0-1.2-1-2.2-2.2-2.2L27.2,1.6z"/>
			<path id="패스_19" class="st1" d="M47.1,6.7c0,0.5-0.5,0.9-1,0.9c-0.5,0-0.9-0.5-0.9-1c0-0.5,0.4-0.9,1-0.9
				C46.6,5.7,47.1,6.2,47.1,6.7C47.1,6.7,47.1,6.7,47.1,6.7"/>
		</g>
	</g>
</g>
</svg>
