<?xml version="1.0" standalone="no"?>
<!DOCTYPE svg PUBLIC "-//W3C//DTD SVG 20010904//EN"
 "http://www.w3.org/TR/2001/REC-SVG-20010904/DTD/svg10.dtd">
<svg version="1.0" xmlns="http://www.w3.org/2000/svg"
 width="512.000000pt" height="512.000000pt" viewBox="0 0 512.000000 512.000000"
 preserveAspectRatio="xMidYMid meet">
<metadata>
Created by potrace 1.14, written by Peter Selinger 2001-2017
</metadata>
<g transform="translate(0.000000,512.000000) scale(0.100000,-0.100000)"
fill="#000000" stroke="none">
<path d="M808 3350 c-81 -14 -152 -38 -231 -80 -94 -49 -103 -56 -202 -155
-65 -65 -90 -99 -128 -175 -68 -137 -79 -189 -83 -365 -2 -122 1 -164 17 -225
25 -97 77 -206 134 -280 47 -61 152 -160 195 -185 76 -43 173 -85 235 -101 67
-18 130 -19 1505 -19 1344 0 1439 1 1500 18 306 83 527 324 574 627 11 70 13
242 3 300 -21 121 -91 275 -165 364 -99 119 -238 210 -392 258 l-75 23 -1420
1 c-781 1 -1441 -2 -1467 -6z m2852 -326 c160 -37 286 -159 331 -319 32 -116
12 -329 -37 -386 -8 -8 -14 -20 -14 -26 0 -22 -122 -132 -174 -158 -111 -54
-49 -52 -1516 -52 -1457 0 -1409 -2 -1516 48 -66 32 -155 118 -192 187 -40 76
-54 138 -53 242 1 156 36 248 135 345 64 64 122 97 209 119 76 19 2744 20
2827 0z"/>
<path d="M4683 2200 c-66 -29 -117 -114 -112 -187 7 -102 89 -182 188 -184
113 -3 201 85 197 196 -5 143 -145 233 -273 175z"/>
</g>
</svg>
